<svg width="1650" height="290" viewBox="0 0 1650 290" fill="none" xmlns="http://www.w3.org/2000/svg">
<path fill-rule="evenodd" clip-rule="evenodd" d="M272.019 132C272.019 133.105 272.914 134 274.019 134C275.124 134 276.019 133.105 276.019 132V130.03C276.019 128.926 275.124 128.03 274.019 128.03C272.914 128.03 272.019 128.926 272.019 130.03V132ZM272.019 122.152C272.019 123.256 272.914 124.152 274.019 124.152C275.124 124.152 276.019 123.256 276.019 122.152V118.212C276.019 117.781 275.882 117.381 275.65 117.054C339.92 78.8474 407.138 43.5777 507.74 39.4116C613.642 35.0261 690.092 66.2902 762 103.908V104.9C762 106.005 762.896 106.9 764 106.9C764.751 106.9 765.405 106.487 765.747 105.875C778.511 112.605 791.146 119.519 803.791 126.453L806.043 127.688C890.281 173.889 975.345 220.543 1102.17 217.892C1161.43 216.653 1210.42 205.071 1254.17 188.361C1254.05 188.618 1253.98 188.904 1253.98 189.206V193.147C1253.98 194.252 1254.88 195.147 1255.98 195.147C1257.09 195.147 1257.98 194.252 1257.98 193.147V189.206C1257.98 188.377 1257.48 187.666 1256.76 187.363C1299.54 170.748 1337.37 149.283 1375.02 127.915L1376.99 126.797C1454.34 82.9032 1531.34 39.7742 1649.97 39.4133L1649.96 35.4133C1530.2 35.7776 1452.42 79.3984 1375.02 123.318L1373.2 124.349C1336.07 145.416 1298.97 166.474 1257.23 182.883C1257.69 182.516 1257.98 181.954 1257.98 181.324V177.382C1257.98 176.278 1257.09 175.382 1255.98 175.382C1254.88 175.382 1253.98 176.278 1253.98 177.382V181.324C1253.98 182.428 1254.88 183.324 1255.98 183.324C1256.03 183.324 1256.08 183.322 1256.12 183.319C1211.84 200.606 1162.33 212.634 1102.08 213.893C976.334 216.521 892.076 170.31 807.788 124.083L805.714 122.946C792.537 115.72 779.352 108.503 766 101.487V100.7C766 99.5954 765.105 98.7 764 98.7C763.313 98.7 762.707 99.0465 762.347 99.5742C690.626 62.1751 613.741 31.0186 507.575 35.415C395.752 40.0457 324.702 82.812 254.247 125.22L252.899 126.031C182.037 168.682 111.51 210.728 -0.0273438 213.893L0.086135 217.892C112.746 214.694 184.05 172.138 254.961 129.458L256.165 128.734C261.445 125.556 266.724 122.379 272.019 119.218V122.152ZM272.019 110.333C272.019 111.438 272.914 112.333 274.019 112.333C275.124 112.333 276.019 111.438 276.019 110.333V106.394C276.019 105.289 275.124 104.394 274.019 104.394C272.914 104.394 272.019 105.289 272.019 106.394V110.333ZM272.019 98.5152C272.019 99.6197 272.914 100.515 274.019 100.515C275.124 100.515 276.019 99.6197 276.019 98.5152V94.5758C276.019 93.4712 275.124 92.5758 274.019 92.5758C272.914 92.5758 272.019 93.4712 272.019 94.5758V98.5152ZM272.019 86.697C272.019 87.8015 272.914 88.697 274.019 88.697C275.124 88.697 276.019 87.8015 276.019 86.697V82.7576C276.019 81.653 275.124 80.7576 274.019 80.7576C272.914 80.7576 272.019 81.653 272.019 82.7576V86.697ZM272.019 74.8788C272.019 75.9834 272.914 76.8788 274.019 76.8788C275.124 76.8788 276.019 75.9834 276.019 74.8788V70.9394C276.019 69.8348 275.124 68.9394 274.019 68.9394C272.914 68.9394 272.019 69.8348 272.019 70.9394V74.8788ZM272.019 63.0606C272.019 64.1652 272.914 65.0606 274.019 65.0606C275.124 65.0606 276.019 64.1652 276.019 63.0606V59.1212C276.019 58.0167 275.124 57.1212 274.019 57.1212C272.914 57.1212 272.019 58.0167 272.019 59.1212V63.0606ZM272.019 51.2424C272.019 52.347 272.914 53.2424 274.019 53.2424C275.124 53.2424 276.019 52.347 276.019 51.2424V47.303C276.019 46.1985 275.124 45.303 274.019 45.303C272.914 45.303 272.019 46.1985 272.019 47.303V51.2424ZM272.019 39.4243C272.019 40.5288 272.914 41.4243 274.019 41.4243C275.124 41.4243 276.019 40.5288 276.019 39.4243V35.4849C276.019 34.3803 275.124 33.4849 274.019 33.4849C272.914 33.4849 272.019 34.3803 272.019 35.4849V39.4243ZM272.019 27.6061C272.019 28.7107 272.914 29.6061 274.019 29.6061C275.124 29.6061 276.019 28.7107 276.019 27.6061V23.6667C276.019 22.5621 275.124 21.6667 274.019 21.6667C272.914 21.6667 272.019 22.5621 272.019 23.6667V27.6061ZM272.019 15.7879C272.019 16.8925 272.914 17.7879 274.019 17.7879C275.124 17.7879 276.019 16.8925 276.019 15.7879V11.8485C276.019 10.7439 275.124 9.84852 274.019 9.84852C272.914 9.84852 272.019 10.7439 272.019 11.8485V15.7879ZM272.019 3.96973C272.019 5.0743 272.914 5.96973 274.019 5.96973C275.124 5.96973 276.019 5.0743 276.019 3.96973V2C276.019 0.895432 275.124 0 274.019 0C272.914 0 272.019 0.895432 272.019 2V3.96973ZM764 130C762.896 130 762 129.105 762 128V125.9C762 124.795 762.896 123.9 764 123.9C765.105 123.9 766 124.795 766 125.9V128C766 129.105 765.105 130 764 130ZM764 119.5C762.896 119.5 762 118.605 762 117.5V113.3C762 112.195 762.896 111.3 764 111.3C765.105 111.3 766 112.195 766 113.3V117.5C766 118.605 765.105 119.5 764 119.5ZM764 94.3C762.896 94.3 762 93.4046 762 92.3V88.1C762 86.9954 762.896 86.1 764 86.1C765.105 86.1 766 86.9954 766 88.1V92.3C766 93.4046 765.105 94.3 764 94.3ZM764 81.7C762.896 81.7 762 80.8046 762 79.7V75.5C762 74.3954 762.896 73.5 764 73.5C765.105 73.5 766 74.3954 766 75.5V79.7C766 80.8046 765.105 81.7 764 81.7ZM764 69.1C762.896 69.1 762 68.2046 762 67.1V62.9C762 61.7954 762.896 60.9 764 60.9C765.105 60.9 766 61.7954 766 62.9V67.1C766 68.2046 765.105 69.1 764 69.1ZM764 56.5C762.896 56.5 762 55.6046 762 54.5V50.3C762 49.1954 762.896 48.3 764 48.3C765.105 48.3 766 49.1954 766 50.3V54.5C766 55.6046 765.105 56.5 764 56.5ZM764 43.9C762.896 43.9 762 43.0046 762 41.9V37.7C762 36.5954 762.896 35.7 764 35.7C765.105 35.7 766 36.5954 766 37.7V41.9C766 43.0046 765.105 43.9 764 43.9ZM764 31.3C762.896 31.3 762 30.4046 762 29.3V25.1C762 23.9954 762.896 23.1 764 23.1C765.105 23.1 766 23.9954 766 25.1V29.3C766 30.4046 765.105 31.3 764 31.3ZM764 18.7C762.896 18.7 762 17.8046 762 16.7V12.5C762 11.3954 762.896 10.5 764 10.5C765.105 10.5 766 11.3954 766 12.5V16.7C766 17.8046 765.105 18.7 764 18.7ZM764 6.10001C762.896 6.10001 762 5.20458 762 4.10001V2.00001C762 0.895432 762.896 7.62939e-06 764 7.62939e-06C765.105 7.62939e-06 766 0.895432 766 2.00001V4.10001C766 5.20458 765.105 6.10001 764 6.10001ZM1253.98 203C1253.98 204.105 1254.88 205 1255.98 205C1257.09 205 1257.98 204.105 1257.98 203V201.029C1257.98 199.925 1257.09 199.029 1255.98 199.029C1254.88 199.029 1253.98 199.925 1253.98 201.029V203ZM1253.98 169.5C1253.98 170.605 1254.88 171.5 1255.98 171.5C1257.09 171.5 1257.98 170.605 1257.98 169.5V165.559C1257.98 164.454 1257.09 163.559 1255.98 163.559C1254.88 163.559 1253.98 164.454 1253.98 165.559V169.5ZM1253.98 157.676C1253.98 158.781 1254.88 159.676 1255.98 159.676C1257.09 159.676 1257.98 158.781 1257.98 157.676V153.735C1257.98 152.631 1257.09 151.735 1255.98 151.735C1254.88 151.735 1253.98 152.631 1253.98 153.735V157.676ZM1253.98 145.853C1253.98 146.958 1254.88 147.853 1255.98 147.853C1257.09 147.853 1257.98 146.958 1257.98 145.853V141.912C1257.98 140.807 1257.09 139.912 1255.98 139.912C1254.88 139.912 1253.98 140.807 1253.98 141.912V145.853ZM1253.98 134.029C1253.98 135.134 1254.88 136.029 1255.98 136.029C1257.09 136.029 1257.98 135.134 1257.98 134.029V130.088C1257.98 128.984 1257.09 128.088 1255.98 128.088C1254.88 128.088 1253.98 128.984 1253.98 130.088V134.029ZM1253.98 122.206C1253.98 123.31 1254.88 124.206 1255.98 124.206C1257.09 124.206 1257.98 123.31 1257.98 122.206V118.265C1257.98 117.16 1257.09 116.265 1255.98 116.265C1254.88 116.265 1253.98 117.16 1253.98 118.265V122.206ZM1253.98 110.382C1253.98 111.487 1254.88 112.382 1255.98 112.382C1257.09 112.382 1257.98 111.487 1257.98 110.382V106.441C1257.98 105.337 1257.09 104.441 1255.98 104.441C1254.88 104.441 1253.98 105.337 1253.98 106.441V110.382ZM1253.98 98.5588C1253.98 99.6634 1254.88 100.559 1255.98 100.559C1257.09 100.559 1257.98 99.6634 1257.98 98.5588V94.6176C1257.98 93.5131 1257.09 92.6176 1255.98 92.6176C1254.88 92.6176 1253.98 93.5131 1253.98 94.6176V98.5588ZM1253.98 86.7353C1253.98 87.8398 1254.88 88.7353 1255.98 88.7353C1257.09 88.7353 1257.98 87.8398 1257.98 86.7353V82.7941C1257.98 81.6895 1257.09 80.7941 1255.98 80.7941C1254.88 80.7941 1253.98 81.6895 1253.98 82.7941V86.7353ZM1253.98 74.9117C1253.98 76.0163 1254.88 76.9117 1255.98 76.9117C1257.09 76.9117 1257.98 76.0163 1257.98 74.9117V70.9706C1257.98 69.866 1257.09 68.9706 1255.98 68.9706C1254.88 68.9706 1253.98 69.866 1253.98 70.9706V74.9117ZM1253.98 63.0882C1253.98 64.1928 1254.88 65.0882 1255.98 65.0882C1257.09 65.0882 1257.98 64.1928 1257.98 63.0882V59.147C1257.98 58.0425 1257.09 57.147 1255.98 57.147C1254.88 57.147 1253.98 58.0425 1253.98 59.147V63.0882ZM1253.98 51.2647C1253.98 52.3692 1254.88 53.2647 1255.98 53.2647C1257.09 53.2647 1257.98 52.3692 1257.98 51.2647V47.3235C1257.98 46.2189 1257.09 45.3235 1255.98 45.3235C1254.88 45.3235 1253.98 46.2189 1253.98 47.3235V51.2647ZM1253.98 39.4411C1253.98 40.5457 1254.88 41.4411 1255.98 41.4411C1257.09 41.4411 1257.98 40.5457 1257.98 39.4411V35.5C1257.98 34.3954 1257.09 33.5 1255.98 33.5C1254.88 33.5 1253.98 34.3954 1253.98 35.5V39.4411ZM1253.98 27.6176C1253.98 28.7222 1254.88 29.6176 1255.98 29.6176C1257.09 29.6176 1257.98 28.7222 1257.98 27.6176V23.6764C1257.98 22.5719 1257.09 21.6764 1255.98 21.6764C1254.88 21.6764 1253.98 22.5719 1253.98 23.6764V27.6176ZM1253.98 15.7941C1253.98 16.8987 1254.88 17.7941 1255.98 17.7941C1257.09 17.7941 1257.98 16.8987 1257.98 15.7941V11.8529C1257.98 10.7483 1257.09 9.85291 1255.98 9.85291C1254.88 9.85291 1253.98 10.7483 1253.98 11.8529V15.7941ZM1253.98 3.97055C1253.98 5.07512 1254.88 5.97055 1255.98 5.97055C1257.09 5.97055 1257.98 5.07512 1257.98 3.97055V2C1257.98 0.895432 1257.09 0 1255.98 0C1254.88 0 1253.98 0.895432 1253.98 2V3.97055ZM519.01 290C517.905 290 517.01 289.105 517.01 288V285.992C517.01 284.887 517.905 283.992 519.01 283.992C520.114 283.992 521.01 284.887 521.01 285.992V288C521.01 289.105 520.114 290 519.01 290ZM519.01 279.958C517.905 279.958 517.01 279.063 517.01 277.958V273.942C517.01 272.837 517.905 271.942 519.01 271.942C520.114 271.942 521.01 272.837 521.01 273.942V277.958C521.01 279.063 520.114 279.958 519.01 279.958ZM519.01 267.908C517.905 267.908 517.01 267.013 517.01 265.908V261.892C517.01 260.787 517.905 259.892 519.01 259.892C520.114 259.892 521.01 260.787 521.01 261.892V265.908C521.01 267.013 520.114 267.908 519.01 267.908ZM519.01 255.858C517.905 255.858 517.01 254.963 517.01 253.858V249.842C517.01 248.737 517.905 247.842 519.01 247.842C520.114 247.842 521.01 248.737 521.01 249.842V253.858C521.01 254.963 520.114 255.858 519.01 255.858ZM519.01 243.808C517.905 243.808 517.01 242.913 517.01 241.808V237.792C517.01 236.687 517.905 235.792 519.01 235.792C520.114 235.792 521.01 236.687 521.01 237.792V241.808C521.01 242.913 520.114 243.808 519.01 243.808ZM519.01 231.758C517.905 231.758 517.01 230.863 517.01 229.758V225.742C517.01 224.637 517.905 223.742 519.01 223.742C520.114 223.742 521.01 224.637 521.01 225.742V229.758C521.01 230.863 520.114 231.758 519.01 231.758ZM519.01 219.708C517.905 219.708 517.01 218.813 517.01 217.708V213.692C517.01 212.587 517.905 211.692 519.01 211.692C520.114 211.692 521.01 212.587 521.01 213.692V217.708C521.01 218.813 520.114 219.708 519.01 219.708ZM519.01 207.658C517.905 207.658 517.01 206.763 517.01 205.658V201.642C517.01 200.537 517.905 199.642 519.01 199.642C520.114 199.642 521.01 200.537 521.01 201.642V205.658C521.01 206.763 520.114 207.658 519.01 207.658ZM519.01 195.608C517.905 195.608 517.01 194.713 517.01 193.608V189.592C517.01 188.487 517.905 187.592 519.01 187.592C520.114 187.592 521.01 188.487 521.01 189.592V193.608C521.01 194.713 520.114 195.608 519.01 195.608ZM519.01 183.558C517.905 183.558 517.01 182.663 517.01 181.558V177.542C517.01 176.437 517.905 175.542 519.01 175.542C520.114 175.542 521.01 176.437 521.01 177.542V181.558C521.01 182.663 520.114 183.558 519.01 183.558ZM519.01 171.508C517.905 171.508 517.01 170.613 517.01 169.508V165.492C517.01 164.387 517.905 163.492 519.01 163.492C520.114 163.492 521.01 164.387 521.01 165.492V169.508C521.01 170.613 520.114 171.508 519.01 171.508ZM519.01 159.458C517.905 159.458 517.01 158.563 517.01 157.458V153.442C517.01 152.337 517.905 151.442 519.01 151.442C520.114 151.442 521.01 152.337 521.01 153.442V157.458C521.01 158.563 520.114 159.458 519.01 159.458ZM519.01 147.408C517.905 147.408 517.01 146.513 517.01 145.408V141.392C517.01 140.287 517.905 139.392 519.01 139.392C520.114 139.392 521.01 140.287 521.01 141.392V145.408C521.01 146.513 520.114 147.408 519.01 147.408ZM519.01 135.358C517.905 135.358 517.01 134.463 517.01 133.358V129.342C517.01 128.237 517.905 127.342 519.01 127.342C520.114 127.342 521.01 128.237 521.01 129.342V133.358C521.01 134.463 520.114 135.358 519.01 135.358ZM519.01 123.308C517.905 123.308 517.01 122.413 517.01 121.308V117.292C517.01 116.187 517.905 115.292 519.01 115.292C520.114 115.292 521.01 116.187 521.01 117.292V121.308C521.01 122.413 520.114 123.308 519.01 123.308ZM519.01 111.258C517.905 111.258 517.01 110.363 517.01 109.258V105.242C517.01 104.137 517.905 103.242 519.01 103.242C520.114 103.242 521.01 104.137 521.01 105.242V109.258C521.01 110.363 520.114 111.258 519.01 111.258ZM519.01 99.2083C517.905 99.2083 517.01 98.3129 517.01 97.2083V93.1916C517.01 92.0871 517.905 91.1916 519.01 91.1916C520.114 91.1916 521.01 92.0871 521.01 93.1916V97.2083C521.01 98.3129 520.114 99.2083 519.01 99.2083ZM519.01 87.1583C517.905 87.1583 517.01 86.2629 517.01 85.1583V81.1416C517.01 80.0371 517.905 79.1416 519.01 79.1416C520.114 79.1416 521.01 80.0371 521.01 81.1416V85.1583C521.01 86.2629 520.114 87.1583 519.01 87.1583ZM519.01 75.1083C517.905 75.1083 517.01 74.2129 517.01 73.1083V69.0916C517.01 67.9871 517.905 67.0916 519.01 67.0916C520.114 67.0916 521.01 67.9871 521.01 69.0916V73.1083C521.01 74.2129 520.114 75.1083 519.01 75.1083ZM519.01 63.0583C517.905 63.0583 517.01 62.1629 517.01 61.0583V57.0416C517.01 55.9371 517.905 55.0416 519.01 55.0416C520.114 55.0416 521.01 55.9371 521.01 57.0416V61.0583C521.01 62.1629 520.114 63.0583 519.01 63.0583ZM519.01 51.0083C517.905 51.0083 517.01 50.1129 517.01 49.0083V47C517.01 45.8954 517.905 45 519.01 45C520.114 45 521.01 45.8954 521.01 47V49.0083C521.01 50.1129 520.114 51.0083 519.01 51.0083ZM1009.99 288C1009.99 289.105 1010.89 290 1011.99 290C1013.1 290 1013.99 289.105 1013.99 288V286.056C1013.99 284.951 1013.1 284.056 1011.99 284.056C1010.89 284.056 1009.99 284.951 1009.99 286.056V288ZM1009.99 278.278C1009.99 279.382 1010.89 280.278 1011.99 280.278C1013.1 280.278 1013.99 279.382 1013.99 278.278V274.389C1013.99 273.284 1013.1 272.389 1011.99 272.389C1010.89 272.389 1009.99 273.284 1009.99 274.389V278.278ZM1009.99 266.611C1009.99 267.716 1010.89 268.611 1011.99 268.611C1013.1 268.611 1013.99 267.716 1013.99 266.611V262.722C1013.99 261.618 1013.1 260.722 1011.99 260.722C1010.89 260.722 1009.99 261.618 1009.99 262.722V266.611ZM1009.99 254.944C1009.99 256.049 1010.89 256.944 1011.99 256.944C1013.1 256.944 1013.99 256.049 1013.99 254.944V251.056C1013.99 249.951 1013.1 249.056 1011.99 249.056C1010.89 249.056 1009.99 249.951 1009.99 251.056V254.944ZM1009.99 243.278C1009.99 244.382 1010.89 245.278 1011.99 245.278C1013.1 245.278 1013.99 244.382 1013.99 243.278V239.389C1013.99 238.284 1013.1 237.389 1011.99 237.389C1010.89 237.389 1009.99 238.284 1009.99 239.389V243.278ZM1009.99 231.611C1009.99 232.716 1010.89 233.611 1011.99 233.611C1013.1 233.611 1013.99 232.716 1013.99 231.611V227.722C1013.99 226.618 1013.1 225.722 1011.99 225.722C1010.89 225.722 1009.99 226.618 1009.99 227.722V231.611ZM1009.99 219.944C1009.99 221.049 1010.89 221.944 1011.99 221.944C1013.1 221.944 1013.99 221.049 1013.99 219.944V218C1013.99 216.895 1013.1 216 1011.99 216C1010.89 216 1009.99 216.895 1009.99 218V219.944Z" fill="#6B8E4E"/>
</svg>
