<svg width="57" height="56" viewBox="0 0 57 56" fill="none" xmlns="http://www.w3.org/2000/svg">
<path d="M38.9414 53.9961V43.9961H46.9414C48.0022 43.9961 49.0198 43.5745 49.7698 42.8245C50.5198 42.0741 50.9414 41.0569 50.9414 39.9959V23.9959C50.9406 20.086 49.8978 16.247 47.9206 12.8739C45.9434 9.50089 43.1026 6.71578 39.6914 4.80526C36.28 2.89476 32.4212 1.92789 28.512 2.00419C24.6029 2.0805 20.7847 3.19722 17.4505 5.23941C14.1164 7.28157 11.3867 10.1755 9.54245 13.6231C7.69825 17.0707 6.80617 20.9475 6.95801 24.8545C7.10989 28.7614 8.30021 32.5573 10.4064 35.8514C12.5127 39.1455 15.4588 41.8185 18.9414 43.5961V53.9961" stroke="#31322C" stroke-width="2" stroke-linecap="round" stroke-linejoin="round"/>
<path d="M22.9374 13.2422C17.4193 16.428 15.1236 23.0516 17.1934 28.8457C17.6713 30.1835 19.1153 30.8562 20.4885 30.4924C27.4367 28.6518 34.5109 23.6727 38.8088 19.7907C39.9475 18.7622 40.1832 17.0434 39.1689 15.8921C35.1644 11.347 28.3851 10.0969 22.9374 13.2422Z" stroke="#31322C" stroke-width="2" stroke-linecap="round" stroke-linejoin="round"/>
</svg>
