<svg width="57" height="56" viewBox="0 0 57 56" fill="none" xmlns="http://www.w3.org/2000/svg">
<path d="M3.12891 12.3438L11.9066 17.0677L19.7416 15.7111C22.3865 15.2532 25.097 16.0103 27.1217 17.7726" stroke="#31322C" stroke-width="2" stroke-linecap="round" stroke-linejoin="round"/>
<path d="M46.0655 37.1315L33.6551 45.9452C30.9271 47.8828 27.2815 47.9176 24.5168 46.0328L3.12891 31.4531" stroke="#31322C" stroke-width="2" stroke-linecap="round" stroke-linejoin="round"/>
<path d="M54.5494 31.3608L45.7682 37.3612L32.1435 26.36L27.1319 30.0075C25.0941 31.4907 22.2473 31.0911 20.6966 29.1042C19.1494 27.1219 19.4479 24.2708 21.3721 22.6518L26.5904 18.2612C29.0915 16.1568 32.3427 15.1638 35.5928 15.5115L43.7258 16.3817L54.5494 10.5312" stroke="#31322C" stroke-width="2" stroke-linecap="round" stroke-linejoin="round"/>
<path d="M32.1445 26.3911C35.423 29.312 40.0723 27.8219 41.8011 25.4375" stroke="#31322C" stroke-width="2" stroke-linecap="round" stroke-linejoin="round"/>
</svg>
