<svg width="57" height="56" viewBox="0 0 57 56" fill="none" xmlns="http://www.w3.org/2000/svg">
<path d="M2.95703 53.3651C4.29448 52.9675 5.52656 52.2767 6.56368 51.3435C7.6008 50.4099 8.417 49.2572 8.95288 47.9688C9.77708 49.8915 11.1862 51.5059 12.9801 52.5823C14.774 53.6587 16.8614 54.1423 18.9459 53.9647C21.0304 54.1423 23.1178 53.6587 24.9118 52.5823C26.7056 51.5059 28.1148 49.8915 28.939 47.9688C29.7632 49.8915 31.1724 51.5059 32.9662 52.5823C34.7602 53.6587 36.8476 54.1423 38.9321 53.9647C41.0166 54.1423 43.1042 53.6587 44.8978 52.5823C46.6918 51.5059 48.101 49.8915 48.925 47.9688C49.461 49.2572 50.2774 50.4099 51.3142 51.3435C52.3514 52.2767 53.5834 52.9675 54.921 53.3651" stroke="#31322C" stroke-width="2" stroke-linecap="round" stroke-linejoin="round"/>
<path d="M2.95703 37.3754C5.63192 36.5801 7.88108 34.5558 8.95288 31.9792C10.6244 35.8786 14.9487 37.975 18.9459 37.975C26.9404 37.975 32.9362 31.9792 32.9362 25.9834C32.9362 17.9889 28.939 9.99444 18.9459 13.9917C19.6121 9.99444 23.7426 2 34.9348 2C46.127 2 52.9222 9.99444 54.921 13.9917" stroke="#31322C" stroke-width="2" stroke-linecap="round" stroke-linejoin="round"/>
</svg>
