<svg width="1650" height="290" viewBox="0 0 1650 290" fill="none" xmlns="http://www.w3.org/2000/svg">
<path d="M272.017 132C272.017 133.105 272.912 134 274.017 134C275.122 134 276.017 133.105 276.017 132V130.03C276.017 128.926 275.122 128.03 274.017 128.03C272.912 128.03 272.017 128.926 272.017 130.03V132Z" fill="#6B8E4E"/>
<path d="M272.017 122.152C272.017 123.256 272.912 124.152 274.017 124.152C275.122 124.152 276.017 123.256 276.017 122.152V118.212C276.017 117.781 275.88 117.381 275.648 117.054C339.918 78.8474 407.136 43.5777 507.738 39.4116C613.64 35.0261 690.09 66.2902 761.998 103.908V104.9C761.998 106.005 762.894 106.9 763.998 106.9C764.749 106.9 765.403 106.487 765.745 105.875C778.51 112.605 791.144 119.519 803.789 126.453L806.041 127.688C890.279 173.889 975.343 220.543 1102.16 217.892C1161.43 216.653 1210.42 205.071 1254.17 188.361C1254.05 188.618 1253.98 188.904 1253.98 189.206V193.147C1253.98 194.252 1254.88 195.147 1255.98 195.147C1257.08 195.147 1257.98 194.252 1257.98 193.147V189.206C1257.98 188.377 1257.48 187.666 1256.76 187.363C1299.54 170.748 1337.36 149.283 1375.02 127.915L1376.99 126.797C1454.34 82.9032 1531.34 39.7742 1649.97 39.4133L1649.96 35.4133C1530.2 35.7776 1452.41 79.3984 1375.01 123.318L1373.2 124.349C1336.07 145.416 1298.96 166.474 1257.23 182.883C1257.69 182.516 1257.98 181.954 1257.98 181.324V177.382C1257.98 176.278 1257.08 175.382 1255.98 175.382C1254.88 175.382 1253.98 176.278 1253.98 177.382V181.324C1253.98 182.428 1254.88 183.324 1255.98 183.324C1256.03 183.324 1256.07 183.322 1256.12 183.319C1211.84 200.606 1162.33 212.634 1102.08 213.893C976.332 216.521 892.075 170.31 807.786 124.083L805.712 122.946C792.535 115.72 779.35 108.503 765.998 101.487V100.7C765.998 99.5954 765.103 98.7 763.998 98.7C763.311 98.7 762.705 99.0465 762.345 99.5742C690.624 62.1751 613.739 31.0186 507.573 35.415C395.75 40.0457 324.7 82.812 254.245 125.22L252.897 126.031C182.035 168.682 111.508 210.728 -0.0292358 213.893L0.0842429 217.892C112.744 214.694 184.048 172.138 254.96 129.458L256.164 128.734C261.443 125.556 266.722 122.379 272.017 119.218V122.152Z" fill="#6B8E4E"/>
<path d="M272.017 110.333C272.017 111.438 272.912 112.333 274.017 112.333C275.122 112.333 276.017 111.438 276.017 110.333V106.394C276.017 105.289 275.122 104.394 274.017 104.394C272.912 104.394 272.017 105.289 272.017 106.394V110.333Z" fill="#6B8E4E"/>
<path d="M272.017 98.5152C272.017 99.6197 272.912 100.515 274.017 100.515C275.122 100.515 276.017 99.6197 276.017 98.5152V94.5758C276.017 93.4712 275.122 92.5758 274.017 92.5758C272.912 92.5758 272.017 93.4712 272.017 94.5758V98.5152Z" fill="#6B8E4E"/>
<path d="M272.017 86.697C272.017 87.8015 272.912 88.697 274.017 88.697C275.122 88.697 276.017 87.8015 276.017 86.697V82.7576C276.017 81.653 275.122 80.7576 274.017 80.7576C272.912 80.7576 272.017 81.653 272.017 82.7576V86.697Z" fill="#6B8E4E"/>
<path d="M272.017 74.8788C272.017 75.9834 272.912 76.8788 274.017 76.8788C275.122 76.8788 276.017 75.9834 276.017 74.8788V70.9394C276.017 69.8348 275.122 68.9394 274.017 68.9394C272.912 68.9394 272.017 69.8348 272.017 70.9394V74.8788Z" fill="#6B8E4E"/>
<path d="M272.017 63.0606C272.017 64.1652 272.912 65.0606 274.017 65.0606C275.122 65.0606 276.017 64.1652 276.017 63.0606V59.1212C276.017 58.0167 275.122 57.1212 274.017 57.1212C272.912 57.1212 272.017 58.0167 272.017 59.1212V63.0606Z" fill="#6B8E4E"/>
<path d="M272.017 51.2424C272.017 52.347 272.912 53.2424 274.017 53.2424C275.122 53.2424 276.017 52.347 276.017 51.2424V47.303C276.017 46.1985 275.122 45.303 274.017 45.303C272.912 45.303 272.017 46.1985 272.017 47.303V51.2424Z" fill="#6B8E4E"/>
<path d="M272.017 39.4243C272.017 40.5288 272.912 41.4243 274.017 41.4243C275.122 41.4243 276.017 40.5288 276.017 39.4243V35.4849C276.017 34.3803 275.122 33.4849 274.017 33.4849C272.912 33.4849 272.017 34.3803 272.017 35.4849V39.4243Z" fill="#6B8E4E"/>
<path d="M272.017 27.6061C272.017 28.7107 272.912 29.6061 274.017 29.6061C275.122 29.6061 276.017 28.7107 276.017 27.6061V23.6667C276.017 22.5621 275.122 21.6667 274.017 21.6667C272.912 21.6667 272.017 22.5621 272.017 23.6667V27.6061Z" fill="#6B8E4E"/>
<path d="M272.017 15.7879C272.017 16.8925 272.912 17.7879 274.017 17.7879C275.122 17.7879 276.017 16.8925 276.017 15.7879V11.8485C276.017 10.7439 275.122 9.84852 274.017 9.84852C272.912 9.84852 272.017 10.7439 272.017 11.8485V15.7879Z" fill="#6B8E4E"/>
<path d="M272.017 3.96973C272.017 5.0743 272.912 5.96973 274.017 5.96973C275.122 5.96973 276.017 5.0743 276.017 3.96973V2C276.017 0.895432 275.122 0 274.017 0C272.912 0 272.017 0.895432 272.017 2V3.96973Z" fill="#6B8E4E"/>
<path d="M763.998 130C762.894 130 761.998 129.105 761.998 128V125.9C761.998 124.795 762.894 123.9 763.998 123.9C765.103 123.9 765.998 124.795 765.998 125.9V128C765.998 129.105 765.103 130 763.998 130Z" fill="#6B8E4E"/>
<path d="M763.998 119.5C762.894 119.5 761.998 118.605 761.998 117.5V113.3C761.998 112.195 762.894 111.3 763.998 111.3C765.103 111.3 765.998 112.195 765.998 113.3V117.5C765.998 118.605 765.103 119.5 763.998 119.5Z" fill="#6B8E4E"/>
<path d="M763.998 94.3C762.894 94.3 761.998 93.4046 761.998 92.3V88.1C761.998 86.9954 762.894 86.1 763.998 86.1C765.103 86.1 765.998 86.9954 765.998 88.1V92.3C765.998 93.4046 765.103 94.3 763.998 94.3Z" fill="#6B8E4E"/>
<path d="M763.998 81.7C762.894 81.7 761.998 80.8046 761.998 79.7V75.5C761.998 74.3954 762.894 73.5 763.998 73.5C765.103 73.5 765.998 74.3954 765.998 75.5V79.7C765.998 80.8046 765.103 81.7 763.998 81.7Z" fill="#6B8E4E"/>
<path d="M763.998 69.1C762.894 69.1 761.998 68.2046 761.998 67.1V62.9C761.998 61.7954 762.894 60.9 763.998 60.9C765.103 60.9 765.998 61.7954 765.998 62.9V67.1C765.998 68.2046 765.103 69.1 763.998 69.1Z" fill="#6B8E4E"/>
<path d="M763.998 56.5C762.894 56.5 761.998 55.6046 761.998 54.5V50.3C761.998 49.1954 762.894 48.3 763.998 48.3C765.103 48.3 765.998 49.1954 765.998 50.3V54.5C765.998 55.6046 765.103 56.5 763.998 56.5Z" fill="#6B8E4E"/>
<path d="M763.998 43.9C762.894 43.9 761.998 43.0046 761.998 41.9V37.7C761.998 36.5954 762.894 35.7 763.998 35.7C765.103 35.7 765.998 36.5954 765.998 37.7V41.9C765.998 43.0046 765.103 43.9 763.998 43.9Z" fill="#6B8E4E"/>
<path d="M763.998 31.3C762.894 31.3 761.998 30.4046 761.998 29.3V25.1C761.998 23.9954 762.894 23.1 763.998 23.1C765.103 23.1 765.998 23.9954 765.998 25.1V29.3C765.998 30.4046 765.103 31.3 763.998 31.3Z" fill="#6B8E4E"/>
<path d="M763.998 18.7C762.894 18.7 761.998 17.8046 761.998 16.7V12.5C761.998 11.3954 762.894 10.5 763.998 10.5C765.103 10.5 765.998 11.3954 765.998 12.5V16.7C765.998 17.8046 765.103 18.7 763.998 18.7Z" fill="#6B8E4E"/>
<path d="M763.998 6.10001C762.894 6.10001 761.998 5.20458 761.998 4.10001V2.00001C761.998 0.895432 762.894 7.62939e-06 763.998 7.62939e-06C765.103 7.62939e-06 765.998 0.895432 765.998 2.00001V4.10001C765.998 5.20458 765.103 6.10001 763.998 6.10001Z" fill="#6B8E4E"/>
<path d="M1253.98 203C1253.98 204.105 1254.88 205 1255.98 205C1257.08 205 1257.98 204.105 1257.98 203V201.029C1257.98 199.925 1257.08 199.029 1255.98 199.029C1254.88 199.029 1253.98 199.925 1253.98 201.029V203Z" fill="#6B8E4E"/>
<path d="M1253.98 169.5C1253.98 170.605 1254.88 171.5 1255.98 171.5C1257.08 171.5 1257.98 170.605 1257.98 169.5V165.559C1257.98 164.454 1257.08 163.559 1255.98 163.559C1254.88 163.559 1253.98 164.454 1253.98 165.559V169.5Z" fill="#6B8E4E"/>
<path d="M1253.98 157.676C1253.98 158.781 1254.88 159.676 1255.98 159.676C1257.08 159.676 1257.98 158.781 1257.98 157.676V153.735C1257.98 152.631 1257.08 151.735 1255.98 151.735C1254.88 151.735 1253.98 152.631 1253.98 153.735V157.676Z" fill="#6B8E4E"/>
<path d="M1253.98 145.853C1253.98 146.958 1254.88 147.853 1255.98 147.853C1257.08 147.853 1257.98 146.958 1257.98 145.853V141.912C1257.98 140.807 1257.08 139.912 1255.98 139.912C1254.88 139.912 1253.98 140.807 1253.98 141.912V145.853Z" fill="#6B8E4E"/>
<path d="M1253.98 134.029C1253.98 135.134 1254.88 136.029 1255.98 136.029C1257.08 136.029 1257.98 135.134 1257.98 134.029V130.088C1257.98 128.984 1257.08 128.088 1255.98 128.088C1254.88 128.088 1253.98 128.984 1253.98 130.088V134.029Z" fill="#6B8E4E"/>
<path d="M1253.98 122.206C1253.98 123.31 1254.88 124.206 1255.98 124.206C1257.08 124.206 1257.98 123.31 1257.98 122.206V118.265C1257.98 117.16 1257.08 116.265 1255.98 116.265C1254.88 116.265 1253.98 117.16 1253.98 118.265V122.206Z" fill="#6B8E4E"/>
<path d="M1253.98 110.382C1253.98 111.487 1254.88 112.382 1255.98 112.382C1257.08 112.382 1257.98 111.487 1257.98 110.382V106.441C1257.98 105.337 1257.08 104.441 1255.98 104.441C1254.88 104.441 1253.98 105.337 1253.98 106.441V110.382Z" fill="#6B8E4E"/>
<path d="M1253.98 98.5588C1253.98 99.6634 1254.88 100.559 1255.98 100.559C1257.08 100.559 1257.98 99.6634 1257.98 98.5588V94.6176C1257.98 93.5131 1257.08 92.6176 1255.98 92.6176C1254.88 92.6176 1253.98 93.5131 1253.98 94.6176V98.5588Z" fill="#6B8E4E"/>
<path d="M1253.98 86.7353C1253.98 87.8398 1254.88 88.7353 1255.98 88.7353C1257.08 88.7353 1257.98 87.8398 1257.98 86.7353V82.7941C1257.98 81.6895 1257.08 80.7941 1255.98 80.7941C1254.88 80.7941 1253.98 81.6895 1253.98 82.7941V86.7353Z" fill="#6B8E4E"/>
<path d="M1253.98 74.9117C1253.98 76.0163 1254.88 76.9117 1255.98 76.9117C1257.08 76.9117 1257.98 76.0163 1257.98 74.9117V70.9706C1257.98 69.866 1257.08 68.9706 1255.98 68.9706C1254.88 68.9706 1253.98 69.866 1253.98 70.9706V74.9117Z" fill="#6B8E4E"/>
<path d="M1253.98 63.0882C1253.98 64.1928 1254.88 65.0882 1255.98 65.0882C1257.08 65.0882 1257.98 64.1928 1257.98 63.0882V59.147C1257.98 58.0425 1257.08 57.147 1255.98 57.147C1254.88 57.147 1253.98 58.0425 1253.98 59.147V63.0882Z" fill="#6B8E4E"/>
<path d="M1253.98 51.2647C1253.98 52.3692 1254.88 53.2647 1255.98 53.2647C1257.08 53.2647 1257.98 52.3692 1257.98 51.2647V47.3235C1257.98 46.2189 1257.08 45.3235 1255.98 45.3235C1254.88 45.3235 1253.98 46.2189 1253.98 47.3235V51.2647Z" fill="#6B8E4E"/>
<path d="M1253.98 39.4411C1253.98 40.5457 1254.88 41.4411 1255.98 41.4411C1257.08 41.4411 1257.98 40.5457 1257.98 39.4411V35.5C1257.98 34.3954 1257.08 33.5 1255.98 33.5C1254.88 33.5 1253.98 34.3954 1253.98 35.5V39.4411Z" fill="#6B8E4E"/>
<path d="M1253.98 27.6176C1253.98 28.7222 1254.88 29.6176 1255.98 29.6176C1257.08 29.6176 1257.98 28.7222 1257.98 27.6176V23.6764C1257.98 22.5719 1257.08 21.6764 1255.98 21.6764C1254.88 21.6764 1253.98 22.5719 1253.98 23.6764V27.6176Z" fill="#6B8E4E"/>
<path d="M1253.98 15.7941C1253.98 16.8987 1254.88 17.7941 1255.98 17.7941C1257.08 17.7941 1257.98 16.8987 1257.98 15.7941V11.8529C1257.98 10.7483 1257.08 9.85291 1255.98 9.85291C1254.88 9.85291 1253.98 10.7483 1253.98 11.8529V15.7941Z" fill="#6B8E4E"/>
<path d="M1253.98 3.97055C1253.98 5.07512 1254.88 5.97055 1255.98 5.97055C1257.08 5.97055 1257.98 5.07512 1257.98 3.97055V2C1257.98 0.895432 1257.08 0 1255.98 0C1254.88 0 1253.98 0.895432 1253.98 2V3.97055Z" fill="#6B8E4E"/>
<path d="M519.008 290C517.903 290 517.008 289.105 517.008 288V285.992C517.008 284.887 517.903 283.992 519.008 283.992C520.112 283.992 521.008 284.887 521.008 285.992V288C521.008 289.105 520.112 290 519.008 290Z" fill="#6B8E4E"/>
<path d="M519.008 279.958C517.903 279.958 517.008 279.063 517.008 277.958V273.942C517.008 272.837 517.903 271.942 519.008 271.942C520.112 271.942 521.008 272.837 521.008 273.942V277.958C521.008 279.063 520.112 279.958 519.008 279.958Z" fill="#6B8E4E"/>
<path d="M519.008 267.908C517.903 267.908 517.008 267.013 517.008 265.908V261.892C517.008 260.787 517.903 259.892 519.008 259.892C520.112 259.892 521.008 260.787 521.008 261.892V265.908C521.008 267.013 520.112 267.908 519.008 267.908Z" fill="#6B8E4E"/>
<path d="M519.008 255.858C517.903 255.858 517.008 254.963 517.008 253.858V249.842C517.008 248.737 517.903 247.842 519.008 247.842C520.112 247.842 521.008 248.737 521.008 249.842V253.858C521.008 254.963 520.112 255.858 519.008 255.858Z" fill="#6B8E4E"/>
<path d="M519.008 243.808C517.903 243.808 517.008 242.913 517.008 241.808V237.792C517.008 236.687 517.903 235.792 519.008 235.792C520.112 235.792 521.008 236.687 521.008 237.792V241.808C521.008 242.913 520.112 243.808 519.008 243.808Z" fill="#6B8E4E"/>
<path d="M519.008 231.758C517.903 231.758 517.008 230.863 517.008 229.758V225.742C517.008 224.637 517.903 223.742 519.008 223.742C520.112 223.742 521.008 224.637 521.008 225.742V229.758C521.008 230.863 520.112 231.758 519.008 231.758Z" fill="#6B8E4E"/>
<path d="M519.008 219.708C517.903 219.708 517.008 218.813 517.008 217.708V213.692C517.008 212.587 517.903 211.692 519.008 211.692C520.112 211.692 521.008 212.587 521.008 213.692V217.708C521.008 218.813 520.112 219.708 519.008 219.708Z" fill="#6B8E4E"/>
<path d="M519.008 207.658C517.903 207.658 517.008 206.763 517.008 205.658V201.642C517.008 200.537 517.903 199.642 519.008 199.642C520.112 199.642 521.008 200.537 521.008 201.642V205.658C521.008 206.763 520.112 207.658 519.008 207.658Z" fill="#6B8E4E"/>
<path d="M519.008 195.608C517.903 195.608 517.008 194.713 517.008 193.608V189.592C517.008 188.487 517.903 187.592 519.008 187.592C520.112 187.592 521.008 188.487 521.008 189.592V193.608C521.008 194.713 520.112 195.608 519.008 195.608Z" fill="#6B8E4E"/>
<path d="M519.008 183.558C517.903 183.558 517.008 182.663 517.008 181.558V177.542C517.008 176.437 517.903 175.542 519.008 175.542C520.112 175.542 521.008 176.437 521.008 177.542V181.558C521.008 182.663 520.112 183.558 519.008 183.558Z" fill="#6B8E4E"/>
<path d="M519.008 171.508C517.903 171.508 517.008 170.613 517.008 169.508V165.492C517.008 164.387 517.903 163.492 519.008 163.492C520.112 163.492 521.008 164.387 521.008 165.492V169.508C521.008 170.613 520.112 171.508 519.008 171.508Z" fill="#6B8E4E"/>
<path d="M519.008 159.458C517.903 159.458 517.008 158.563 517.008 157.458V153.442C517.008 152.337 517.903 151.442 519.008 151.442C520.112 151.442 521.008 152.337 521.008 153.442V157.458C521.008 158.563 520.112 159.458 519.008 159.458Z" fill="#6B8E4E"/>
<path d="M519.008 147.408C517.903 147.408 517.008 146.513 517.008 145.408V141.392C517.008 140.287 517.903 139.392 519.008 139.392C520.112 139.392 521.008 140.287 521.008 141.392V145.408C521.008 146.513 520.112 147.408 519.008 147.408Z" fill="#6B8E4E"/>
<path d="M519.008 135.358C517.903 135.358 517.008 134.463 517.008 133.358V129.342C517.008 128.237 517.903 127.342 519.008 127.342C520.112 127.342 521.008 128.237 521.008 129.342V133.358C521.008 134.463 520.112 135.358 519.008 135.358Z" fill="#6B8E4E"/>
<path d="M519.008 123.308C517.903 123.308 517.008 122.413 517.008 121.308V117.292C517.008 116.187 517.903 115.292 519.008 115.292C520.112 115.292 521.008 116.187 521.008 117.292V121.308C521.008 122.413 520.112 123.308 519.008 123.308Z" fill="#6B8E4E"/>
<path d="M519.008 111.258C517.903 111.258 517.008 110.363 517.008 109.258V105.242C517.008 104.137 517.903 103.242 519.008 103.242C520.112 103.242 521.008 104.137 521.008 105.242V109.258C521.008 110.363 520.112 111.258 519.008 111.258Z" fill="#6B8E4E"/>
<path d="M519.008 99.2083C517.903 99.2083 517.008 98.3129 517.008 97.2083V93.1916C517.008 92.0871 517.903 91.1916 519.008 91.1916C520.112 91.1916 521.008 92.0871 521.008 93.1916V97.2083C521.008 98.3129 520.112 99.2083 519.008 99.2083Z" fill="#6B8E4E"/>
<path d="M519.008 87.1583C517.903 87.1583 517.008 86.2629 517.008 85.1583V81.1416C517.008 80.0371 517.903 79.1416 519.008 79.1416C520.112 79.1416 521.008 80.0371 521.008 81.1416V85.1583C521.008 86.2629 520.112 87.1583 519.008 87.1583Z" fill="#6B8E4E"/>
<path d="M519.008 75.1083C517.903 75.1083 517.008 74.2129 517.008 73.1083V69.0916C517.008 67.9871 517.903 67.0916 519.008 67.0916C520.112 67.0916 521.008 67.9871 521.008 69.0916V73.1083C521.008 74.2129 520.112 75.1083 519.008 75.1083Z" fill="#6B8E4E"/>
<path d="M519.008 63.0583C517.903 63.0583 517.008 62.1629 517.008 61.0583V57.0416C517.008 55.9371 517.903 55.0416 519.008 55.0416C520.112 55.0416 521.008 55.9371 521.008 57.0416V61.0583C521.008 62.1629 520.112 63.0583 519.008 63.0583Z" fill="#6B8E4E"/>
<path d="M519.008 51.0083C517.903 51.0083 517.008 50.1129 517.008 49.0083V47C517.008 45.8954 517.903 45 519.008 45C520.112 45 521.008 45.8954 521.008 47V49.0083C521.008 50.1129 520.112 51.0083 519.008 51.0083Z" fill="#6B8E4E"/>
<path d="M1009.99 288C1009.99 289.105 1010.88 290 1011.99 290C1013.09 290 1013.99 289.105 1013.99 288V286.056C1013.99 284.951 1013.09 284.056 1011.99 284.056C1010.88 284.056 1009.99 284.951 1009.99 286.056V288Z" fill="#6B8E4E"/>
<path d="M1009.99 278.278C1009.99 279.382 1010.88 280.278 1011.99 280.278C1013.09 280.278 1013.99 279.382 1013.99 278.278V274.389C1013.99 273.284 1013.09 272.389 1011.99 272.389C1010.88 272.389 1009.99 273.284 1009.99 274.389V278.278Z" fill="#6B8E4E"/>
<path d="M1009.99 266.611C1009.99 267.716 1010.88 268.611 1011.99 268.611C1013.09 268.611 1013.99 267.716 1013.99 266.611V262.722C1013.99 261.618 1013.09 260.722 1011.99 260.722C1010.88 260.722 1009.99 261.618 1009.99 262.722V266.611Z" fill="#6B8E4E"/>
<path d="M1009.99 254.944C1009.99 256.049 1010.88 256.944 1011.99 256.944C1013.09 256.944 1013.99 256.049 1013.99 254.944V251.056C1013.99 249.951 1013.09 249.056 1011.99 249.056C1010.88 249.056 1009.99 249.951 1009.99 251.056V254.944Z" fill="#6B8E4E"/>
<path d="M1009.99 243.278C1009.99 244.382 1010.88 245.278 1011.99 245.278C1013.09 245.278 1013.99 244.382 1013.99 243.278V239.389C1013.99 238.284 1013.09 237.389 1011.99 237.389C1010.88 237.389 1009.99 238.284 1009.99 239.389V243.278Z" fill="#6B8E4E"/>
<path d="M1009.99 231.611C1009.99 232.716 1010.88 233.611 1011.99 233.611C1013.09 233.611 1013.99 232.716 1013.99 231.611V227.722C1013.99 226.618 1013.09 225.722 1011.99 225.722C1010.88 225.722 1009.99 226.618 1009.99 227.722V231.611Z" fill="#6B8E4E"/>
<path d="M1009.99 219.944C1009.99 221.049 1010.88 221.944 1011.99 221.944C1013.09 221.944 1013.99 221.049 1013.99 219.944V218C1013.99 216.895 1013.09 216 1011.99 216C1010.88 216 1009.99 216.895 1009.99 218V219.944Z" fill="#6B8E4E"/>
<path d="M248.971 120C248.971 106.193 260.164 95 273.971 95C287.778 95 298.971 106.193 298.971 120C298.971 133.807 287.778 145 273.971 145C260.164 145 248.971 133.807 248.971 120Z" fill="white"/>
<path d="M272.869 131V110.2L274.693 112.088H268.133V108.6H277.029V131H272.869Z" fill="#6B8E4E"/>
<path d="M493.971 39C493.971 25.1929 505.164 14 518.971 14C532.778 14 543.971 25.1929 543.971 39C543.971 52.8071 532.778 64 518.971 64C505.164 64 493.971 52.8071 493.971 39Z" fill="white"/>
<path d="M510.778 50V47.216L519.674 38.768C520.421 38.064 520.976 37.4453 521.338 36.912C521.701 36.3787 521.936 35.888 522.042 35.44C522.17 34.9707 522.234 34.5333 522.234 34.128C522.234 33.104 521.882 32.3147 521.178 31.76C520.474 31.184 519.44 30.896 518.074 30.896C516.986 30.896 515.994 31.088 515.098 31.472C514.224 31.856 513.466 32.4427 512.826 33.232L509.914 30.992C510.789 29.8187 511.962 28.912 513.434 28.272C514.928 27.6107 516.592 27.28 518.426 27.28C520.048 27.28 521.456 27.5467 522.65 28.08C523.866 28.592 524.794 29.328 525.434 30.288C526.096 31.248 526.426 32.3893 526.426 33.712C526.426 34.4373 526.33 35.1627 526.138 35.888C525.946 36.592 525.584 37.3387 525.05 38.128C524.517 38.9173 523.738 39.8027 522.714 40.784L515.066 48.048L514.202 46.48H527.29V50H510.778Z" fill="#6B8E4E"/>
<path d="M738.971 106C738.971 92.1929 750.164 81 763.971 81C777.778 81 788.971 92.1929 788.971 106C788.971 119.807 777.778 131 763.971 131C750.164 131 738.971 119.807 738.971 106Z" fill="white"/>
<path d="M763.106 117.32C761.528 117.32 759.981 117.096 758.466 116.648C756.973 116.179 755.714 115.539 754.69 114.728L756.482 111.496C757.293 112.157 758.274 112.691 759.426 113.096C760.578 113.501 761.784 113.704 763.042 113.704C764.536 113.704 765.698 113.405 766.53 112.808C767.362 112.189 767.778 111.357 767.778 110.312C767.778 109.288 767.394 108.477 766.626 107.88C765.858 107.283 764.621 106.984 762.914 106.984H760.866V104.136L767.266 96.52L767.81 98.088H755.778V94.6H771.042V97.384L764.642 105L762.466 103.72H763.714C766.466 103.72 768.525 104.339 769.89 105.576C771.277 106.792 771.97 108.36 771.97 110.28C771.97 111.539 771.65 112.701 771.01 113.768C770.37 114.835 769.389 115.699 768.066 116.36C766.765 117 765.112 117.32 763.106 117.32Z" fill="#6B8E4E"/>
<path d="M984.971 212C984.971 198.193 996.164 187 1009.97 187C1023.78 187 1034.97 198.193 1034.97 212C1034.97 225.807 1023.78 237 1009.97 237C996.164 237 984.971 225.807 984.971 212Z" fill="white"/>
<path d="M1000.2 217.912V215.032L1011.24 200.6H1015.69L1004.81 215.032L1002.73 214.392H1020.49V217.912H1000.2ZM1012.49 223V217.912L1012.62 214.392V209.88H1016.52V223H1012.49Z" fill="#6B8E4E"/>
<path d="M1228.97 187C1228.97 173.193 1240.16 162 1253.97 162C1267.78 162 1278.97 173.193 1278.97 187C1278.97 200.807 1267.78 212 1253.97 212C1240.16 212 1228.97 200.807 1228.97 187Z" fill="white"/>
<path d="M1253.46 198.32C1251.88 198.32 1250.33 198.096 1248.82 197.648C1247.33 197.179 1246.07 196.539 1245.04 195.728L1246.8 192.496C1247.61 193.157 1248.6 193.691 1249.75 194.096C1250.92 194.501 1252.14 194.704 1253.39 194.704C1254.87 194.704 1256.02 194.395 1256.85 193.776C1257.7 193.157 1258.13 192.325 1258.13 191.28C1258.13 190.576 1257.95 189.957 1257.59 189.424C1257.25 188.891 1256.63 188.485 1255.73 188.208C1254.86 187.931 1253.65 187.792 1252.12 187.792H1246.71L1247.86 175.6H1261.01V179.088H1249.39L1251.57 177.104L1250.71 186.224L1248.53 184.272H1253.04C1255.26 184.272 1257.04 184.571 1258.39 185.168C1259.75 185.744 1260.74 186.555 1261.36 187.6C1262 188.624 1262.32 189.797 1262.32 191.12C1262.32 192.421 1262 193.616 1261.36 194.704C1260.72 195.792 1259.74 196.667 1258.42 197.328C1257.12 197.989 1255.46 198.32 1253.46 198.32Z" fill="#6B8E4E"/>
</svg>
