<svg width="56" height="56" viewBox="0 0 56 56" fill="none" xmlns="http://www.w3.org/2000/svg">
<path d="M53.7986 53.8053C53.7986 53.8053 37.923 45.8677 37.923 33.9609H18.0786C18.0786 45.8677 2.20312 53.8053 2.20312 53.8053" stroke="white" stroke-width="2" stroke-linecap="round" stroke-linejoin="round"/>
<path d="M41.8917 22.0521C43.9969 22.0521 46.0161 21.2158 47.5045 19.7272C48.9933 18.2386 49.8293 16.2196 49.8293 14.1144C49.8293 12.0092 48.9933 9.99017 47.5045 8.50157C46.0161 7.01293 43.9969 6.17665 41.8917 6.17665C40.1061 6.17573 38.3721 6.77701 36.9703 7.88325C36.1668 6.18413 34.8971 4.74817 33.3091 3.74258C31.7212 2.73699 29.8802 2.20312 28.0007 2.20312C26.1211 2.20312 24.2802 2.73699 22.6922 3.74258C21.1043 4.74817 19.8346 6.18413 19.031 7.88325C17.6292 6.77701 15.8954 6.17573 14.1096 6.17665C12.0044 6.17665 9.98539 7.01293 8.49675 8.50157C7.00815 9.99017 6.17188 12.0092 6.17188 14.1144C6.17188 16.2196 7.00815 18.2386 8.49675 19.7272C9.98539 21.2158 12.0044 22.0521 14.1096 22.0521" stroke="white" stroke-width="2" stroke-linecap="round" stroke-linejoin="round"/>
<path d="M22.0469 18.0859V33.9614" stroke="white" stroke-width="2" stroke-linecap="round" stroke-linejoin="round"/>
<path d="M33.9531 18.0859V33.9614" stroke="white" stroke-width="2" stroke-linecap="round" stroke-linejoin="round"/>
</svg>
