<svg width="25" height="24" viewBox="0 0 25 24" fill="none" xmlns="http://www.w3.org/2000/svg">
<path d="M0.941406 24L2.62841 17.837C1.58741 16.033 1.04041 13.988 1.04141 11.891C1.04441 5.335 6.37941 0 12.9344 0C16.1154 0.001 19.1014 1.24 21.3474 3.488C23.5924 5.736 24.8284 8.724 24.8274 11.902C24.8244 18.459 19.4894 23.794 12.9344 23.794C10.9444 23.793 8.98341 23.294 7.24641 22.346L0.941406 24ZM7.53841 20.193C9.21441 21.188 10.8144 21.784 12.9304 21.785C18.3784 21.785 22.8164 17.351 22.8194 11.9C22.8214 6.438 18.4044 2.01 12.9384 2.008C7.48641 2.008 3.05141 6.442 3.04941 11.892C3.04841 14.117 3.70041 15.783 4.79541 17.526L3.79641 21.174L7.53841 20.193ZM18.9254 14.729C18.8514 14.605 18.6534 14.531 18.3554 14.382C18.0584 14.233 16.5974 13.514 16.3244 13.415C16.0524 13.316 15.8544 13.266 15.6554 13.564C15.4574 13.861 14.8874 14.531 14.7144 14.729C14.5414 14.927 14.3674 14.952 14.0704 14.803C13.7734 14.654 12.8154 14.341 11.6804 13.328C10.7974 12.54 10.2004 11.567 10.0274 11.269C9.85441 10.972 10.0094 10.811 10.1574 10.663C10.2914 10.53 10.4544 10.316 10.6034 10.142C10.7544 9.97 10.8034 9.846 10.9034 9.647C11.0024 9.449 10.9534 9.275 10.8784 9.126C10.8034 8.978 10.2094 7.515 9.96241 6.92C9.72041 6.341 9.47541 6.419 9.29341 6.41L8.72341 6.4C8.52541 6.4 8.20341 6.474 7.93141 6.772C7.65941 7.07 6.89141 7.788 6.89141 9.251C6.89141 10.714 7.95641 12.127 8.10441 12.325C8.25341 12.523 10.1994 15.525 13.1804 16.812C13.8894 17.118 14.4434 17.301 14.8744 17.438C15.5864 17.664 16.2344 17.632 16.7464 17.556C17.3174 17.471 18.5044 16.837 18.7524 16.143C19.0004 15.448 19.0004 14.853 18.9254 14.729Z" fill="white"/>
</svg>
